<!-- Generator: Adobe Illustrator 25.0.0, SVG Export Plug-In  -->
<svg version="1.1" xmlns="http://www.w3.org/2000/svg" xmlns:xlink="http://www.w3.org/1999/xlink" x="0px" y="0px"
	 width="835.57px" height="252.01px" viewBox="0 0 835.57 252.01"
	 style="overflow:visible;enable-background:new 0 0 835.57 252.01;" xml:space="preserve">
<style type="text/css">
	.st0{fill:#EEDFC9;}
</style>
<defs>
</defs>
<g>
	<path class="st0" d="M77.27,245.09c2.13-5.76-1.33-11.46-6.23-14.53c-3.58-2.25-7.81-3.14-11.9-3.98c-1.14-0.23-2.27-0.49-3.4-0.76
		c2.83-2.02,5.6-4.12,8.44-6.12c3.19-2.25,6.86-5.22,10.94-5.28c1.96-0.03,4.09,0.67,5.16,2.42c1.09,1.78,0.88,4.21-0.59,5.7
		c-1.5,1.52-4.05,1.95-5.82,0.67c-1-0.72-1.57-1.82-1.21-3.04c0.62-2.08,2.96-1.78,4.02-0.18c0.08,0.12,0.27,0.08,0.28-0.08
		c0.1-1.99-2.2-3.03-3.93-2.37c-2,0.77-2.73,3.26-2.01,5.15c2.15,5.66,10.54,3.38,11.83-1.64c1.59-6.18-4.77-9.67-10.09-8.47
		c-2.5,0.56-4.78,1.9-6.92,3.36c-0.05-0.03-0.09-0.06-0.14-0.08c-2.34-0.83-4.73-1.45-7.14-2c-0.27-0.32-0.7-0.47-1.14-0.25
		c-3.44-0.75-6.91-1.38-10.32-2.25c-5.5-1.42-12.3-4.75-12.72-11.27c-0.42-6.43,6.63-11.06,12.35-8.05
		c2.81,1.48,4.88,5.22,2.72,8.12c-1.11,1.49-3.33,2.05-4.89,0.87c-1.47-1.11-1.46-3.17-0.59-4.66c0.16-0.28-0.19-0.7-0.48-0.48
		c-1.69,1.28-1.89,3.57-0.71,5.32c1.28,1.89,3.8,2.3,5.83,1.51c2.45-0.95,3.81-3.52,3.64-6.09c-0.19-2.88-2.23-5.29-4.73-6.56
		c-2.62-1.32-5.52-1.39-8.1-0.5c-8.08-7.08-13.68-16.45-15.95-26.98c-1.12-5.17-1.36-10.5-0.79-15.76c0.57-5.3,2.82-11.2-0.16-16.19
		c-1.33-2.23-3.18-3.72-5.26-4.59c1.15-0.5,2.26-1.2,3.27-2.14c4.04-3.76,3.74-8.99,2.87-14c-0.94-5.4-1.34-10.78-0.65-16.25
		c1.52-12.08,7.54-23.13,16.66-31.12c1.9,0.66,4,0.8,6.09,0.25c5.09-1.34,9.79-8.39,4.58-12.57c-1.93-1.55-5.07-1.77-6.87,0.13
		c-1.61,1.7-1.61,4.44,0.28,5.86c0.29,0.22,0.64-0.2,0.48-0.48c-2.05-3.49,2.18-7.32,5.18-4.19c2.59,2.7,0.6,6.79-2.15,8.38
		c-5.72,3.32-13.05-1.36-12.63-7.9c0.41-6.35,6.96-9.73,12.35-11.17c3.52-0.94,7.12-1.59,10.68-2.36c0.45,0.22,0.88,0.07,1.15-0.25
		c2.41-0.54,4.8-1.16,7.14-1.99c0.06-0.02,0.09-0.06,0.14-0.08c2.15,1.46,4.43,2.8,6.92,3.36c5.32,1.2,11.68-2.29,10.09-8.47
		c-1.29-5.03-9.68-7.3-11.83-1.64c-0.72,1.89,0.02,4.38,2.01,5.15c1.73,0.67,4.03-0.37,3.93-2.37c-0.01-0.15-0.2-0.2-0.28-0.08
		c-0.87,1.3-2.96,2.03-3.88,0.35c-0.6-1.11-0.19-2.49,0.69-3.31c1.64-1.52,4.4-1.23,5.99,0.21c1.55,1.4,1.95,3.82,0.95,5.66
		c-1.03,1.91-3.24,2.7-5.31,2.67c-3.97-0.05-7.5-2.86-10.61-5.04c-2.96-2.08-5.85-4.27-8.8-6.37c0.63-0.15,1.27-0.3,1.91-0.43
		c3.74-0.77,7.51-1.46,11.01-3.02c5.32-2.37,10.16-7.6,9.16-13.8h111.47c-0.01-0.71-0.01-1.42-0.02-2.13H77.23
		c-1.9-4.9-7.26-7.83-12.53-6.45c-5.09,1.34-9.79,8.39-4.58,12.57c1.93,1.55,5.07,1.77,6.87-0.13c1.61-1.7,1.61-4.44-0.28-5.86
		c-0.29-0.22-0.64,0.2-0.48,0.48c2.05,3.49-2.18,7.32-5.18,4.19c-2.59-2.7-0.6-6.79,2.15-8.38c5.72-3.32,13.05,1.36,12.63,7.9
		c-0.41,6.35-6.96,9.73-12.35,11.17c-6.29,1.67-12.82,2.41-18.98,4.6c-0.06,0.02-0.1,0.06-0.15,0.09c-2.15-1.45-4.41-2.8-6.92-3.36
		c-5.32-1.2-11.68,2.29-10.09,8.47c1.29,5.03,9.69,7.3,11.83,1.64c0.71-1.89-0.01-4.37-2.01-5.15c-1.73-0.67-4.02,0.37-3.93,2.36
		c0.01,0.15,0.2,0.2,0.28,0.08c0.87-1.31,2.97-2.03,3.88-0.35c0.61,1.11,0.19,2.49-0.69,3.31c-1.64,1.52-4.4,1.23-5.99-0.21
		c-1.55-1.4-1.95-3.82-0.95-5.66c1.03-1.91,3.24-2.7,5.31-2.67c4.01,0.05,7.48,2.91,10.65,5.05c3.08,2.08,6.16,4.17,9.23,6.26
		c-0.79,0.19-1.58,0.38-2.38,0.54c-3.74,0.77-7.51,1.46-11.01,3.02c-5.4,2.41-10.32,7.75-9.13,14.08c0.55,2.95,2.31,5.38,4.65,6.9
		C26.08,71.1,19.8,85.9,20.06,100.48c0.07,3.98,0.93,7.72,1.6,11.62c0.84,4.83,0,9.61-4.66,12.1c-1.18,0.63-2.41,0.95-3.64,1.03
		c-0.42-0.02-0.84-0.01-1.25,0.01c-7.16-0.46-13.69-8.84-8.81-15.62c1.46-2.03,3.86-3.39,6.41-3.07c2.41,0.31,4.7,2.03,5.11,4.52
		c0.37,2.22-0.86,4.84-3.07,5.59c-2.63,0.89-5.32-1.13-5.94-3.66c-0.12-0.48-0.86-0.38-0.86,0.12c0.03,3.83,4.36,6.28,7.81,4.84
		c3.37-1.42,4.83-5.78,3.24-9.02c-1.79-3.65-6.43-5.11-10.1-3.61c-4.34,1.77-6.47,6.49-5.78,10.98c0.71,4.65,3.96,8.2,7.94,9.8
		c-2.86,1.11-5.38,3.22-6.82,6.21c-2.04,4.22-1.63,9.54,1.93,12.81c3.05,2.8,7.68,3.19,10.94,0.5c3.33-2.75,3.44-8.24-0.24-10.79
		c-3.47-2.41-8.88-0.17-8.91,4.23c0,0.49,0.74,0.6,0.86,0.12c1.23-5.01,7.99-4.94,8.99,0.15c1.01,5.09-5.21,7.65-9.08,5.46
		c-4.44-2.5-4.87-8.42-2.48-12.49c1.68-2.86,4.73-4.94,8.02-5.37c0.88,0.11,1.77,0.12,2.66,0.03c0.09,0.01,0.18,0.02,0.27,0.04
		c4.24,0.79,7.52,4.31,7.82,8.63c0.31,4.39-1.43,8.8-1.81,13.17c-0.65,7.48,0.61,15.21,3.31,22.19c2.9,7.52,7.51,14.41,13.57,19.74
		c-1.75,1.13-3.2,2.78-4.04,4.84c-2.41,5.87,1.11,11.74,6.1,14.88c3.58,2.25,7.81,3.14,11.9,3.98c1.3,0.27,2.59,0.56,3.87,0.87
		c-2.95,2.01-5.89,4.01-8.85,6c-3.26,2.2-6.87,5.23-11,5.28c-1.96,0.03-4.09-0.67-5.16-2.42c-1.09-1.78-0.88-4.21,0.59-5.7
		c1.5-1.51,4.05-1.95,5.83-0.67c1,0.72,1.57,1.83,1.21,3.04c-0.62,2.08-2.97,1.78-4.03,0.18c-0.08-0.12-0.27-0.08-0.28,0.08
		c-0.09,1.99,2.19,3.03,3.93,2.36c2-0.77,2.72-3.26,2.01-5.15c-2.14-5.66-10.53-3.38-11.83,1.64c-1.59,6.18,4.77,9.67,10.09,8.47
		c2.51-0.57,4.76-1.92,6.92-3.36c0.05,0.03,0.09,0.07,0.15,0.09c6.04,2.14,12.43,2.91,18.6,4.5c5.5,1.42,12.3,4.75,12.72,11.27
		c0.42,6.43-6.63,11.06-12.35,8.05c-2.81-1.48-4.88-5.22-2.72-8.12c1.11-1.49,3.33-2.05,4.89-0.87c1.47,1.11,1.46,3.17,0.59,4.66
		c-0.16,0.28,0.19,0.7,0.48,0.48c1.69-1.28,1.89-3.57,0.71-5.32c-1.28-1.89-3.8-2.3-5.83-1.51c-2.45,0.95-3.81,3.52-3.64,6.09
		c0.19,2.88,2.23,5.29,4.73,6.56c4.89,2.47,10.78,0.6,13.6-3.84v0.15h113.56c0-0.71-0.01-1.42-0.01-2.13H77.27z M47.14,29.05
		c-0.15-0.1-0.3-0.2-0.45-0.31c2.08-0.58,4.14-1.16,6.22-1.71c3.46,2.34,6.78,4.88,10.19,7.28c0.14,0.1,0.28,0.2,0.41,0.29
		c-1.91,0.53-3.82,1.07-5.74,1.58C54.23,33.82,50.69,31.43,47.14,29.05z M46.7,223.44c0.15-0.1,0.3-0.2,0.44-0.3
		c3.53-2.38,7.07-4.76,10.61-7.12c1.92,0.5,3.84,1.03,5.77,1.56c-0.14,0.1-0.27,0.19-0.41,0.29c-3.4,2.39-6.71,4.93-10.16,7.25
		C50.87,224.58,48.79,224.01,46.7,223.44z"/>
	<path class="st0" d="M835.43,135.71c-0.81-4.65-4.55-8.2-9.11-9.8c3.28-1.11,6.17-3.22,7.83-6.21c2.34-4.22,1.87-9.54-2.21-12.81
		c-3.5-2.8-8.82-3.19-12.55-0.5c-3.82,2.75-3.95,8.24,0.27,10.79c3.98,2.41,10.19,0.17,10.23-4.23c0-0.49-0.85-0.6-0.98-0.12
		c-1.41,5.01-9.16,4.94-10.32-0.15c-1.16-5.09,5.98-7.65,10.42-5.46c5.1,2.5,5.59,8.42,2.84,12.49c-1.93,2.86-5.43,4.94-9.2,5.37
		c-1.01-0.11-2.04-0.12-3.05-0.03c-0.1-0.01-0.2-0.02-0.31-0.04c-4.87-0.79-8.63-4.31-8.98-8.63c-0.36-4.39,1.64-8.8,2.07-13.17
		c0.74-7.48-0.7-15.21-3.8-22.19c-3.33-7.52-8.62-14.41-15.58-19.74c2.01-1.13,3.67-2.78,4.63-4.84c2.76-5.87-1.28-11.74-7-14.88
		c-4.11-2.25-8.97-3.14-13.66-3.98c-1.49-0.27-2.97-0.56-4.44-0.87c3.38-2.01,6.76-4.01,10.15-6c3.74-2.2,7.88-5.23,12.62-5.28
		c2.25-0.02,4.69,0.67,5.92,2.42c1.25,1.78,1.01,4.21-0.68,5.7c-1.72,1.51-4.65,1.95-6.69,0.67c-1.15-0.72-1.8-1.83-1.39-3.04
		c0.71-2.08,3.4-1.78,4.62-0.17c0.09,0.12,0.31,0.08,0.32-0.08c0.1-1.99-2.52-3.03-4.51-2.36c-2.29,0.77-3.12,3.26-2.31,5.15
		c2.45,5.66,12.09,3.38,13.57-1.64c1.83-6.18-5.47-9.67-11.57-8.47c-2.88,0.57-5.47,1.92-7.94,3.36c-0.06-0.03-0.1-0.07-0.17-0.09
		c-6.93-2.14-14.26-2.91-21.35-4.5c-6.32-1.42-14.12-4.75-14.6-11.27c-0.48-6.43,7.6-11.06,14.18-8.05c3.23,1.48,5.6,5.22,3.12,8.12
		c-1.27,1.49-3.83,2.05-5.61,0.87c-1.68-1.11-1.68-3.17-0.68-4.66c0.19-0.28-0.21-0.7-0.55-0.48c-1.94,1.28-2.17,3.57-0.81,5.32
		c1.47,1.89,4.36,2.3,6.69,1.51c2.82-0.95,4.37-3.52,4.17-6.09c-0.22-2.88-2.56-5.29-5.43-6.56c-6.26-2.76-13.97-0.12-16.6,5.47
		c-0.03,0.07-0.05,0.14-0.09,0.22H168.47c0.01,0.71,0.01,1.42,0.02,2.13h577.8c-0.9,5.05,2.79,9.82,7.75,12.53
		c4.11,2.25,8.97,3.14,13.66,3.98c1.31,0.23,2.61,0.49,3.9,0.76c-3.24,2.02-6.42,4.12-9.68,6.12c-3.66,2.25-7.87,5.22-12.55,5.27
		c-2.25,0.03-4.69-0.67-5.92-2.42c-1.25-1.78-1.01-4.21,0.68-5.7c1.72-1.52,4.64-1.95,6.68-0.67c1.15,0.72,1.8,1.82,1.39,3.04
		c-0.71,2.08-3.39,1.78-4.62,0.18c-0.09-0.12-0.31-0.08-0.32,0.08c-0.11,1.99,2.52,3.03,4.51,2.37c2.29-0.77,3.13-3.26,2.31-5.15
		c-2.46-5.66-12.09-3.38-13.58,1.64c-1.83,6.18,5.47,9.67,11.58,8.47c2.87-0.56,5.48-1.9,7.95-3.36c0.06,0.03,0.1,0.06,0.17,0.08
		c2.68,0.83,5.43,1.45,8.2,2c0.31,0.32,0.8,0.47,1.31,0.25c3.95,0.75,7.93,1.38,11.84,2.25c6.32,1.42,14.12,4.75,14.6,11.27
		c0.48,6.44-7.6,11.06-14.18,8.05c-3.23-1.48-5.6-5.22-3.12-8.12c1.27-1.49,3.83-2.05,5.61-0.87c1.68,1.11,1.68,3.17,0.68,4.66
		c-0.19,0.28,0.21,0.7,0.55,0.48c1.94-1.28,2.17-3.57,0.81-5.33c-1.47-1.89-4.36-2.3-6.69-1.51c-2.82,0.95-4.37,3.52-4.17,6.09
		c0.22,2.88,2.56,5.29,5.43,6.56c3,1.32,6.34,1.39,9.29,0.5c9.27,7.08,15.69,16.45,18.31,26.98c1.28,5.17,1.56,10.5,0.91,15.76
		c-0.65,5.3-3.23,11.2,0.18,16.19c1.52,2.23,3.65,3.72,6.04,4.59c-1.33,0.5-2.6,1.2-3.76,2.14c-4.63,3.76-4.29,8.99-3.29,14
		c1.08,5.4,1.54,10.78,0.75,16.25c-1.75,12.08-8.65,23.13-19.12,31.12c-2.18-0.66-4.59-0.8-6.98-0.25
		c-5.84,1.34-11.23,8.39-5.26,12.57c2.22,1.55,5.82,1.77,7.88-0.13c1.85-1.7,1.84-4.44-0.32-5.86c-0.33-0.22-0.74,0.2-0.55,0.48
		c2.35,3.49-2.51,7.32-5.95,4.19c-2.98-2.7-0.69-6.79,2.47-8.38c6.56-3.32,14.97,1.36,14.49,7.9c-0.47,6.35-7.99,9.73-14.18,11.17
		c-4.04,0.94-8.17,1.59-12.26,2.36c-0.52-0.23-1.01-0.07-1.32,0.25c-2.77,0.54-5.51,1.16-8.19,1.99c-0.07,0.02-0.11,0.06-0.17,0.08
		c-2.47-1.46-5.08-2.8-7.95-3.36c-6.11-1.2-13.4,2.29-11.58,8.47c1.49,5.03,11.11,7.3,13.58,1.64c0.82-1.89-0.02-4.38-2.31-5.15
		c-1.99-0.67-4.62,0.37-4.51,2.37c0.01,0.15,0.22,0.2,0.32,0.08c1-1.3,3.4-2.03,4.45-0.35c0.69,1.11,0.22,2.49-0.79,3.31
		c-1.89,1.52-5.05,1.23-6.87-0.21c-1.77-1.4-2.23-3.82-1.09-5.66c1.19-1.91,3.72-2.7,6.1-2.67c4.55,0.05,8.61,2.86,12.17,5.04
		c3.4,2.08,6.71,4.27,10.09,6.37c-0.73,0.15-1.45,0.3-2.19,0.43c-4.29,0.77-8.61,1.46-12.64,3.02c-6.2,2.41-11.84,7.75-10.47,14.08
		c0.13,0.6,0.33,1.17,0.56,1.72H169.15c0,0.71,0.01,1.42,0.01,2.13h578.86v-0.15c2.75,3.75,8.06,5.79,13.3,4.59
		c5.84-1.34,11.23-8.39,5.26-12.57c-2.22-1.55-5.82-1.77-7.88,0.13c-1.85,1.7-1.84,4.44,0.32,5.86c0.33,0.22,0.74-0.2,0.55-0.48
		c-2.35-3.49,2.51-7.32,5.95-4.19c2.98,2.7,0.68,6.79-2.47,8.38c-6.56,3.32-14.97-1.36-14.49-7.9c0.47-6.35,7.99-9.73,14.17-11.17
		c7.22-1.67,14.71-2.41,21.78-4.6c0.07-0.02,0.11-0.06,0.17-0.09c2.47,1.45,5.06,2.8,7.94,3.36c6.11,1.2,13.4-2.29,11.57-8.47
		c-1.48-5.03-11.12-7.3-13.57-1.64c-0.82,1.89,0.02,4.37,2.31,5.15c1.99,0.67,4.61-0.37,4.51-2.36c-0.01-0.15-0.23-0.2-0.32-0.08
		c-0.99,1.31-3.4,2.03-4.45,0.35c-0.7-1.11-0.22-2.49,0.79-3.31c1.88-1.52,5.05-1.23,6.88,0.21c1.77,1.4,2.23,3.82,1.09,5.66
		c-1.19,1.91-3.72,2.7-6.1,2.67c-4.6-0.05-8.58-2.91-12.22-5.05c-3.54-2.08-7.06-4.17-10.59-6.26c0.91-0.19,1.82-0.38,2.73-0.54
		c4.29-0.77,8.61-1.46,12.64-3.02c6.2-2.41,11.84-7.75,10.47-14.08c-0.64-2.95-2.65-5.38-5.33-6.9
		c12.61-9.65,19.82-24.45,19.52-39.03c-0.08-3.98-1.06-7.72-1.84-11.62c-0.96-4.83,0-9.61,5.35-12.1c1.35-0.63,2.76-0.95,4.18-1.03
		c0.48,0.02,0.96,0.01,1.44-0.01c8.21,0.46,15.71,8.84,10.11,15.62c-1.68,2.03-4.43,3.39-7.36,3.07c-2.77-0.31-5.39-2.03-5.87-4.52
		c-0.43-2.22,0.99-4.84,3.53-5.59c3.02-0.89,6.1,1.13,6.81,3.66c0.14,0.48,0.99,0.38,0.98-0.12c-0.04-3.83-5-6.28-8.96-4.84
		c-3.87,1.42-5.55,5.78-3.72,9.02c2.06,3.65,7.38,5.11,11.59,3.61C833.77,144.93,836.22,140.2,835.43,135.71z M769.21,36.04
		c-2.21-0.5-4.41-1.03-6.62-1.56c0.16-0.1,0.31-0.19,0.47-0.29c3.91-2.39,7.69-4.93,11.65-7.25c2.4,0.54,4.78,1.11,7.18,1.69
		c-0.17,0.1-0.34,0.2-0.51,0.3C777.33,31.3,773.28,33.67,769.21,36.04z M781.39,223.01c0.17,0.1,0.34,0.2,0.51,0.31
		c-2.38,0.58-4.76,1.16-7.14,1.71c-3.97-2.34-7.78-4.88-11.7-7.28c-0.16-0.1-0.32-0.2-0.47-0.29c2.2-0.53,4.39-1.07,6.58-1.58
		C773.25,218.24,777.32,220.62,781.39,223.01z"/>
</g>
</svg>
