<!-- Generator: Adobe Illustrator 25.0.0, SVG Export Plug-In  -->
<svg version="1.1" xmlns="http://www.w3.org/2000/svg" xmlns:xlink="http://www.w3.org/1999/xlink" x="0px" y="0px"
	 width="155.37px" height="84.68px" viewBox="0 0 155.37 84.68" style="overflow:visible;enable-background:new 0 0 155.37 84.68;"
	 xml:space="preserve">
<style type="text/css">
	.st0{fill:#EFD4F6;}
	.st1{fill:#231815;}
</style>
<defs>
</defs>
<g>
	<path class="st0" d="M155.37,39.33v6.02c0,21.72-17.61,39.33-39.33,39.33H39.33C17.61,84.68,0,67.07,0,45.35l0-6.02
		C0,17.61,17.61,0,39.33,0l76.72,0C137.77,0,155.37,17.61,155.37,39.33z"/>
	<g>
		<g>
			<path class="st1" d="M39.07,30.87v35.4h-4.23V40.04c-1.29,2.11-2.78,4.23-4.59,6.29l-1.44-1.18c4.84-7.42,7.63-18.76,8.71-26.43
				l4.54,0.88C41.28,23.3,40.41,27.11,39.07,30.87z M75.91,60.76l-1.39,4.64c-1.96,0.15-3.97,0.21-6.03,0.21
				c-9.17-0.05-16.33-0.98-21.28-6.29c-1.7,3.09-3.81,5.57-6.34,7.58l-1.29-1.29c2.52-2.42,4.33-5.41,5.62-8.92
				c-2.01-3.04-3.5-7.11-4.48-12.57l1.7-0.26c0.88,3.97,2.11,7.11,3.76,9.58c1.13-4.28,1.65-9.07,1.91-14.17h-2.58
				c-0.31,0.82-0.67,1.65-0.98,2.47l-3.97-0.77c1.75-3.97,3.61-9.17,5.21-15.36h-4.07V23.3h9.17c-1.29,4.43-2.83,9.22-4.48,13.66
				h1.39l0.98-0.77l3.56,1.03c-0.52,7.94-1.7,14.12-3.71,19.01c4.02,3.71,9.69,5.05,17.21,5.1C70.55,61.32,73.49,61.12,75.91,60.76z
				 M59.89,32.73h-8.76v-2.32h8.76v-4.17h-6.75v-2.32h6.75v-5.05h4.33v5.05h7.47v6.49h3.25v2.32h-3.25v7.01h-7.47v4.02h8.19v2.32
				h-8.19v4.02h10.05v2.32H64.21v7.47h-4.33v-7.47h-8.45v-2.32h8.45v-4.02h-6.96v-2.32h6.96v-4.02h-5.88v-2.47h5.88V32.73z
				 M64.21,30.41h3.76v-4.17h-3.76V30.41z M64.21,37.42h3.76v-4.69h-3.76V37.42z"/>
			<path class="st1" d="M93.74,38.19c0,8.35-0.1,20.25-7.83,28.65l-1.29-1.03c4.33-7.78,4.59-12.78,4.59-29.53V24.53h22.52
				c-3.04-1.8-6.24-3.3-9.02-4.48l0.46-1.86c3.66,0.36,8.76,1.6,12.26,2.99l-1.8,3.35h16.44v2.32H93.74V38.19z M107.6,54.32
				c-3.35,2.68-9.48,6.18-13.4,7.73l-1.8-4.48c4.38-0.88,10.46-2.89,14.32-4.74L107.6,54.32z M131.25,59.37l-2.42,4.84
				c-3.71-1.8-11.08-5.93-15.72-13.76v12.06c0,4.79-5.93,5.82-13.81,1.7l0.41-1.7c7.88,1.13,8.86,0.67,8.86-1.91V45.2H97.04v-2.32
				h11.54v-3.56H94.87V37h13.71v-3.45H97.29v-2.32h11.29v-3.5h4.53v3.5h11.34v5.72h5.51v2.32h-5.51v5.93h-11.34v1.29
				c1.5,2.42,3.3,4.43,5.21,6.08c2.01-1.6,4.02-3.4,6.08-6.29l3.76,3.19c-2.58,2.01-5.41,3.61-7.73,4.69
				C124.3,56.94,128.42,58.49,131.25,59.37z M104.66,49.73l-2.47,3.56c-2.16-2.01-5-3.97-7.11-5.36l0.72-1.6
				C98.48,46.9,102.24,48.34,104.66,49.73z M113.11,36.95h6.91v-3.4h-6.91V36.95z M113.11,42.88h6.91v-3.56h-6.91V42.88z"/>
		</g>
	</g>
</g>
</svg>
