<!-- Generator: Adobe Illustrator 25.0.0, SVG Export Plug-In  -->
<svg version="1.1" xmlns="http://www.w3.org/2000/svg" xmlns:xlink="http://www.w3.org/1999/xlink" x="0px" y="0px"
	 width="155.37px" height="84.68px" viewBox="0 0 155.37 84.68" style="overflow:visible;enable-background:new 0 0 155.37 84.68;"
	 xml:space="preserve">
<style type="text/css">
	.st0{fill:#EEDFC9;}
	.st1{fill:#231815;}
</style>
<defs>
</defs>
<g>
	<path class="st0" d="M155.37,39.33v6.02c0,21.72-17.61,39.33-39.33,39.33H39.33C17.61,84.68,0,67.07,0,45.35l0-6.02
		C0,17.61,17.61,0,39.33,0l76.72,0C137.77,0,155.37,17.61,155.37,39.33z"/>
	<g>
		<g>
			<path class="st1" d="M74.73,59.57v2.83H30.57v-2.83H50.2V27.21H33.3v-2.68h38.49v2.68H55.25v32.36H74.73z"/>
			<path class="st1" d="M97.04,31.54v34.83h-4.43V38.29c-2.42,3.09-4.9,5.51-7.11,7.21l-1.24-1.39c4.02-4.38,9.07-12.37,12.73-25.51
				l4.89,1.7C100.54,24.53,98.89,28.24,97.04,31.54z M115.9,30.46v8.6h13.14v2.32H115.9v9.02h13.29v2.32H115.9v13.66h-4.54V30.46
				h-3.19c-2.32,4.12-5.26,7.94-8.4,10.82l-1.34-1.29c4.33-5.2,7.42-13.04,8.76-20.97l5.05,1.55c-0.62,2.47-1.6,5.05-2.83,7.57
				h21.28v2.32H115.9z"/>
		</g>
	</g>
</g>
</svg>
