<!-- Generator: Adobe Illustrator 25.0.0, SVG Export Plug-In  -->
<svg version="1.1" xmlns="http://www.w3.org/2000/svg" xmlns:xlink="http://www.w3.org/1999/xlink" x="0px" y="0px"
	 width="155.37px" height="84.68px" viewBox="0 0 155.37 84.68" style="overflow:visible;enable-background:new 0 0 155.37 84.68;"
	 xml:space="preserve">
<style type="text/css">
	.st0{fill:#CFEEBC;}
	.st1{fill:#231815;}
</style>
<defs>
</defs>
<g>
	<path class="st0" d="M155.37,39.33v6.02c0,21.72-17.61,39.33-39.33,39.33H39.33C17.61,84.68,0,67.07,0,45.35l0-6.02
		C0,17.61,17.61,0,39.33,0l76.72,0C137.77,0,155.37,17.61,155.37,39.33z"/>
	<g>
		<g>
			<path class="st1" d="M74.73,55.6H56.02v6.18c0,4.79-4.23,6.54-13.29,2.01l0.51-1.8c7.63,1.19,8.14,0.82,8.14-2.16V55.6H30.46
				v-2.32h20.92v-3.71l3.45,0.51c1.91-1.08,3.81-2.58,5.31-3.86h-21.8v-2.32h22.98l1.39-0.62l4.17,3.35
				c-3.3,2.32-7.73,4.12-10.87,5.05v1.6h18.71V55.6z M35.41,48.24h-4.54v-9.17h4.54c-0.21-5.87-0.41-11.8-0.67-17.67l3.97,0.88
				c1.96-0.93,3.66-2.11,5.72-4.02l2.68,2.89c-2.01,1.08-5.36,2.27-8.25,2.78c0.05,0.93,0.1,1.86,0.1,2.78h6.9v2.32h-6.8l0.16,4.07
				h7.01v2.32h-6.96c0.05,1.24,0.1,2.42,0.1,3.66H47l-0.62-1.34c1.75-0.98,3.3-2.17,4.59-3.56c-1.03-0.88-2.11-1.7-3.3-2.53
				l0.77-1.44c1.49,0.67,2.88,1.29,4.22,2.01c0.88-1.08,1.65-2.27,2.37-3.5l3.19,2.27c-0.77,0.93-1.7,1.91-2.78,2.94
				c1.13,0.77,2.22,1.6,3.3,2.58l-2.37,2.58h9.28l0.16-3.5H58.8v-2.32h7.16l0.15-3.76h-6.96v-2.32h7.06
				c0.05-1.34,0.05-2.63,0.1-3.97H58.8v-2.32h7.11l0.98-0.98l3.76,0.93c-0.26,5.98-0.62,12.21-1.13,18.24h4.69v9.02h-4.53v-6.7
				H35.41V48.24z M51.07,23.71c-1.08-1.08-2.22-2.11-3.25-2.94l0.77-1.5c1.29,0.62,2.63,1.44,4.02,2.32c0.67-1.08,1.29-2.16,1.8-3.2
				l3.45,1.91c-0.67,1.03-1.55,2.11-2.58,3.19c1.08,0.82,2.06,1.65,3.04,2.53l-2.73,2.78c-0.67-0.88-1.55-2.01-2.58-3.09
				c-1.7,1.44-3.56,2.73-5.31,3.66l-0.93-1.29C48.39,26.8,49.84,25.31,51.07,23.71z M47.83,39.06h7.94
				c-0.88-1.08-1.8-2.11-2.73-3.04C51.43,37.26,49.68,38.34,47.83,39.06z"/>
			<path class="st1" d="M131.72,59.42l-1.86,5.31c-6.65-1.44-15.36-5.98-19.79-10.62v12.47h-4.43v-11.9
				c-3.66,3.71-11.59,8.04-20.41,9.89l-0.62-1.75c6.03-2.11,13.29-5.62,17.83-10.77H86.11v-2.32h19.53v-3.61H91.06v-2.22h14.58v-3.3
				H88.17v-2.32h12.21c-1.24-2.01-2.68-4.28-4.02-6.13l0.46-0.52h-9.94v-2.32h8.04c-0.93-2.22-2.73-5.57-4.33-8.45l1.49-1.13
				c2.58,2.11,5.26,5.31,6.85,7.68l-2.99,1.91h5.41V18.81h4.43v10.51h4.53V18.81h4.43v10.51h1.85c1.24-2.37,2.89-6.65,3.76-9.58
				l4.69,2.27c-1.44,2.16-3.66,5.2-5.77,7.32h9.95v2.32h-13.09l3.35,1.65c-1.44,1.8-3.25,3.66-4.84,5h13.14v2.32h-17.73v3.3h14.89
				v2.22h-14.89v3.61h19.63v2.32h-18.29C117.96,56.53,126.15,58.49,131.72,59.42z M104.92,36.8l-1.96,1.49h8.81
				c0.93-1.75,2.11-4.53,2.78-6.65H99C101.11,33.09,103.27,34.99,104.92,36.8z"/>
		</g>
	</g>
</g>
</svg>
