<!-- Generator: Adobe Illustrator 25.0.0, SVG Export Plug-In  -->
<svg version="1.1" xmlns="http://www.w3.org/2000/svg" xmlns:xlink="http://www.w3.org/1999/xlink" x="0px" y="0px"
	 width="155.37px" height="84.68px" viewBox="0 0 155.37 84.68" style="overflow:visible;enable-background:new 0 0 155.37 84.68;"
	 xml:space="preserve">
<style type="text/css">
	.st0{fill:#FFE9E9;}
	.st1{fill:#231815;}
</style>
<defs>
</defs>
<g>
	<path class="st0" d="M155.37,39.33v6.02c0,21.72-17.61,39.33-39.33,39.33H39.33C17.61,84.68,0,67.07,0,45.35l0-6.02
		C0,17.61,17.61,0,39.33,0l76.72,0C137.77,0,155.37,17.61,155.37,39.33z"/>
	<g>
		<g>
			<path class="st1" d="M29.17,51.59c4.07-5.41,4.17-11.54,4.07-21.49v-5.56h23.14c-0.21-1.91-0.36-3.87-0.46-5.88h4.38
				c0.1,2.01,0.26,3.97,0.46,5.88h8.5c-2.06-1.91-4.23-3.76-5.77-4.95l0.98-1.65c2.63,0.98,5.82,2.32,8.14,3.76l-1.91,2.83h4.48
				v2.32H61.02c0.62,4.33,1.5,8.3,2.83,11.54c1.5-2.68,2.78-5.72,3.81-9.17l3.97,1.55c-1.39,3.76-3.14,7.63-5.93,11.18
				c1.44,2.11,3.2,3.56,5.31,4.07c1.55,0.36,1.85-0.77,1.8-7.27h1.85c1.91,7.52,1.7,12.73-3.3,12.06c-3.61-0.52-6.44-2.42-8.66-5.41
				c-1.91,1.85-4.12,3.61-6.8,5.15l-1.08-1.49c2.27-1.8,4.33-3.86,6.18-6.39c-2.16-4.17-3.55-9.64-4.38-15.82H37.99v3.92
				c-0.05,12.93-2.42,17.67-7.47,22.16L29.17,51.59z M37.42,51.07l1.8,0.46c-0.41,5.05-2.47,9.89-6.18,13.24l-3.2-3.35
				C33.86,58.54,35.98,55.71,37.42,51.07z M55.87,33.14H39.38v-2.32h16.49V33.14z M55.04,46.59h-15.1v-10h15.1V46.59z M63.6,53.75
				c2.22,8.5,0.82,10.67-3.45,11.03c-3.66,0.31-7.99,0.26-11.18,0.15c-5.82-0.21-7.57-1.39-7.57-5.05V49.83h4.43v8.09
				c0,2.16,0.51,2.68,3.5,2.89c3.45,0.26,7.52,0.15,9.74-0.16c2.06-0.31,2.68-1.03,2.68-6.9H63.6z M50.97,38.91h-7.01v5.36h7.01
				V38.91z M49.68,49.27c2.58,1.19,5.82,3.35,8.66,5.98l-2.94,3.09c-2.53-3.09-4.59-5.31-6.75-7.63L49.68,49.27z M75.5,61.89
				l-4.12,2.22c-1.65-4.28-3.45-7.88-5.67-11.8l1.44-1.13C70.35,54.06,73.44,58.23,75.5,61.89z"/>
			<path class="st1" d="M89.87,26.8c0.88,4.54,0.57,12.06-0.67,15.15l-4.69-1.75c1.96-3.19,3.3-7.63,3.5-13.4H89.87z M91.57,18.81
				h4.43v47.82h-4.43V18.81z M102.29,34.48l-4.12,1.19c-0.26-3.09-0.88-6.75-1.49-9.33l1.7-0.62
				C99.92,28.09,101.37,31.64,102.29,34.48z M130.58,36.13v2.32h-30.5v-2.32h12.73v-4.07h-9.74v-2.32h9.74v-3.61h-11.85v-2.32h11.85
				v-5.26h4.74v5.26h12.21v2.32h-12.21v3.61h10.2v2.32h-10.2v4.07H130.58z M102.6,42.16h24.48v19.43c0,5.26-4.33,6.91-12.57,2.27
				l0.52-1.8c6.7,1.24,7.52,0.67,7.52-1.86v-3.71h-15.3v10.2h-4.64V42.16z M107.24,44.47v3.71h15.3v-3.71H107.24z M122.54,54.26
				V50.4h-15.3v3.86H122.54z"/>
		</g>
	</g>
</g>
</svg>
