<!-- Generator: Adobe Illustrator 25.0.0, SVG Export Plug-In  -->
<svg version="1.1" xmlns="http://www.w3.org/2000/svg" xmlns:xlink="http://www.w3.org/1999/xlink" x="0px" y="0px"
	 width="155.37px" height="84.68px" viewBox="0 0 155.37 84.68" style="overflow:visible;enable-background:new 0 0 155.37 84.68;"
	 xml:space="preserve">
<style type="text/css">
	.st0{fill:#FFF8B2;}
	.st1{fill:#231815;}
</style>
<defs>
</defs>
<g>
	<path class="st0" d="M155.37,39.33v6.02c0,21.72-17.61,39.33-39.33,39.33H39.33C17.61,84.68,0,67.07,0,45.35l0-6.02
		C0,17.61,17.61,0,39.33,0l76.72,0C137.77,0,155.37,17.61,155.37,39.33z"/>
	<g>
		<g>
			<path class="st1" d="M36.03,53.13l4.9,2.17c-2.32,3.92-6.7,9.02-10.31,11.85l-1.44-1.24C31.96,62.15,34.48,57.82,36.03,53.13z
				 M49.73,52.15h-16.7V20.72h16.7V52.15z M45.3,23.04h-7.83v6.8h7.83V23.04z M45.3,32.06h-7.83v7.58h7.83V32.06z M45.3,41.85h-7.83
				v7.99h7.83V41.85z M53.08,63.44l-3.97,2.58c-1.86-3.87-4.43-8.81-5.82-11.34l1.44-1.18C47.36,55.76,51.18,60.5,53.08,63.44z
				 M75.71,32.83h-6.18v28.29c0,6.34-5.41,7.32-14.12,2.68l0.41-1.86c7.99,1.34,8.97,1.24,8.97-2.06V40.61
				c-2.99,5.82-7.42,11.7-13.66,16.49l-1.29-1.6c5.93-5.82,10.36-13.4,14.07-22.67H51.33v-2.32h13.45V18.86h4.74v11.65h6.18V32.83z"
				/>
			<path class="st1" d="M84.88,63.8c2.32-1.8,5.46-5.15,7.21-7.63V44.89h-6.44v-2.32h10.87v13.5c2.83,4.23,9.33,4.59,13.91,4.59
				c6.7,0,15.61-0.51,21.54-1.29l-1.86,5.05c-5.51,0.36-13.71,0.41-19.94,0.26c-9.33-0.21-13.5-3.76-15.67-7.78
				c-1.7,3.66-4.17,7.47-6.49,10.1L84.88,63.8z M86.22,30.56l0.98-1.6c2.89,1.44,6.75,3.66,9.48,6.18l-3.3,3.66
				C91.63,36.44,88.64,32.88,86.22,30.56z M87.81,20.2l0.93-1.49c2.83,1.13,6.75,3.35,9.48,5.72l-3.25,3.66
				C93.02,25.62,90.44,22.78,87.81,20.2z M112.34,53.9H99.41v-2.32h12.93v-3.2h-10.05v-13.6h10.05V31.7h-11.59v-2.32h11.59v-3.97
				h4.43v3.97h11.23v2.32h-11.23v3.09h10.15v13.6h-10.15v3.2h13.4v2.32h-13.4v5.41h-4.43V53.9z M99.67,21.34h29.42v7.01h-4.33v-4.69
				h-20.77v4.69h-4.33V21.34z M112.34,40.35v-3.4h-5.93v3.4H112.34z M112.34,46.23v-3.81h-5.93v3.81H112.34z M122.8,40.35v-3.4
				h-6.03v3.4H122.8z M122.8,46.23v-3.81h-6.03v3.81H122.8z"/>
		</g>
	</g>
</g>
</svg>
